<?xml version="1.0" standalone="no"?>
<!DOCTYPE svg PUBLIC "-//W3C//DTD SVG 20010904//EN"
 "http://www.w3.org/TR/2001/REC-SVG-20010904/DTD/svg10.dtd">
<svg version="1.0" xmlns="http://www.w3.org/2000/svg"
 width="400.000000pt" height="400.000000pt" viewBox="0 0 400.000000 400.000000"
 preserveAspectRatio="xMidYMid meet">
<metadata>
Created by potrace 1.14, written by Peter Selinger 2001-2017
</metadata>
<g transform="translate(0.000000,400.000000) scale(0.100000,-0.100000)"
fill="#000000" stroke="none">
<path d="M2908 3048 c-16 -13 -28 -29 -28 -36 0 -7 -4 -12 -9 -12 -4 0 -21
-12 -37 -27 -28 -26 -29 -29 -29 -128 0 -94 2 -103 25 -126 14 -14 53 -35 88
-48 54 -20 74 -23 140 -18 119 9 162 31 162 82 0 9 7 24 16 32 13 13 15 29 9
82 -4 36 -11 68 -16 69 -5 2 -9 11 -9 20 -1 23 -24 52 -42 52 -8 0 -25 9 -38
20 -13 11 -29 20 -36 20 -7 0 -17 7 -22 16 -7 12 -29 18 -78 21 -62 5 -72 3
-96 -19z"/>
<path d="M786 2993 c-37 -4 -54 -13 -79 -42 -7 -7 -27 -27 -45 -45 -48 -45
-62 -77 -62 -146 0 -65 15 -103 51 -134 18 -15 41 -18 151 -20 85 0 131 3 136
10 4 6 18 15 32 19 120 36 134 212 25 321 -35 34 -42 37 -104 39 -36 2 -83 1
-105 -2z"/>
<path d="M2644 2125 c-4 -8 -12 -15 -20 -15 -8 0 -14 -9 -14 -20 0 -11 -11
-27 -25 -36 -14 -9 -25 -25 -25 -35 0 -11 -4 -19 -9 -19 -5 0 -12 -11 -15 -24
-3 -14 -20 -34 -36 -46 -17 -12 -30 -30 -30 -41 0 -11 -6 -26 -12 -33 -38 -39
-58 -68 -58 -83 0 -10 -10 -27 -22 -38 -27 -24 -48 -59 -48 -79 0 -8 -13 -28
-30 -44 -16 -17 -30 -38 -30 -46 0 -9 -4 -16 -10 -16 -5 0 -10 -7 -10 -15 0
-9 -7 -18 -15 -21 -8 -4 -15 -12 -15 -20 0 -8 -4 -14 -10 -14 -5 0 -12 -16
-16 -36 -4 -19 -13 -38 -20 -41 -8 -3 -14 -12 -14 -19 0 -8 -7 -17 -16 -21 -8
-3 -22 -23 -31 -44 -8 -22 -21 -39 -29 -39 -7 0 -16 -16 -20 -35 -3 -19 -10
-35 -14 -35 -5 0 -12 -9 -15 -20 -3 -11 -12 -20 -19 -20 -6 0 -18 -16 -25 -36
-23 -64 -71 -100 -71 -54 0 11 -4 20 -10 20 -5 0 -10 9 -10 20 0 11 -4 20 -10
20 -5 0 -10 7 -10 15 0 8 -4 15 -10 15 -5 0 -10 6 -10 14 0 8 -6 16 -14 19 -8
3 -17 24 -21 46 -3 21 -12 42 -20 45 -7 2 -16 18 -20 35 -4 17 -11 31 -16 31
-5 0 -9 10 -9 23 0 12 -11 31 -25 41 -14 10 -25 25 -25 33 0 7 -7 16 -15 19
-8 4 -15 13 -15 20 0 8 -7 17 -15 20 -8 4 -15 12 -15 19 0 7 -6 18 -14 24 -7
6 -16 25 -20 41 -3 18 -12 30 -21 30 -9 0 -15 9 -15 24 0 13 -3 26 -7 28 -5 2
-20 26 -35 53 -14 28 -35 54 -45 59 -10 5 -26 25 -35 45 -8 20 -23 53 -32 74
-9 21 -16 57 -16 82 0 40 -2 44 -30 50 -20 4 -37 1 -52 -9 -12 -9 -31 -16 -41
-16 -26 0 -71 -45 -64 -64 4 -9 13 -16 21 -16 8 0 18 -9 21 -20 3 -11 10 -20
15 -20 5 0 14 -16 21 -35 7 -19 17 -35 21 -35 4 0 8 -7 8 -15 0 -18 18 -51 43
-77 9 -10 17 -25 17 -33 0 -8 4 -15 9 -15 5 0 13 -10 16 -22 4 -13 18 -37 31
-55 13 -17 24 -39 24 -47 0 -9 5 -16 10 -16 6 0 10 -4 10 -9 0 -6 11 -22 25
-37 14 -15 25 -32 25 -38 0 -18 24 -66 33 -66 4 0 7 -7 7 -15 0 -9 6 -18 14
-21 8 -3 17 -17 21 -31 3 -14 16 -40 29 -57 13 -17 27 -44 30 -61 4 -16 16
-35 27 -43 10 -7 19 -20 19 -28 0 -8 4 -14 8 -14 5 0 14 -16 22 -35 8 -19 20
-35 27 -35 7 0 13 -11 13 -25 0 -14 6 -28 14 -31 8 -3 19 -25 26 -50 7 -24 16
-44 20 -44 4 0 12 -11 18 -24 13 -29 57 -41 95 -27 15 6 27 17 27 26 0 8 6 15
13 15 7 0 19 16 27 35 8 19 17 35 22 35 4 0 8 7 8 15 0 19 21 58 38 68 6 4 12
12 12 18 0 5 16 26 35 45 20 20 39 49 42 66 3 16 12 32 19 35 8 3 14 11 14 19
0 8 5 14 10 14 6 0 10 6 10 13 0 8 9 24 20 37 11 13 20 28 20 34 0 6 9 17 19
23 11 7 22 25 26 42 3 16 13 35 21 42 8 6 14 18 14 25 0 8 7 14 15 14 8 0 15
6 15 13 0 8 11 27 25 43 14 16 25 37 25 47 0 10 7 20 15 23 8 4 15 16 15 28 1
23 22 56 36 56 11 0 54 65 54 82 0 7 12 24 25 37 14 13 25 29 25 37 0 8 4 14
9 14 5 0 13 9 16 20 3 11 13 20 21 20 8 0 14 8 14 18 1 18 22 52 34 52 15 0
42 38 55 77 13 40 13 43 -10 67 -28 30 -96 37 -105 11z"/>
</g>
</svg>
